<svg xmlns="http://www.w3.org/2000/svg" viewBox="0 0 119.03 112.42"><g id="Layer_2" data-name="Layer 2"><g id="Layer_1-2" data-name="Layer 1"><path d="M105.76,112.42H13.27A13.26,13.26,0,0,1,.38,96L15.53,33.37A13.23,13.23,0,0,1,28.42,23.22H90.88a13.23,13.23,0,0,1,12.91,10.2l14.87,62.67a13.27,13.27,0,0,1-12.9,16.33ZM28.42,27.22a9.24,9.24,0,0,0-9,7.09L4.27,97a9.26,9.26,0,0,0,9,11.44h92.49a9.26,9.26,0,0,0,9-11.41L99.9,34.35a9.23,9.23,0,0,0-9-7.13Z"/><path d="M43.09,53.87A10.54,10.54,0,1,1,53.63,43.33,10.55,10.55,0,0,1,43.09,53.87Zm0-17.08a6.54,6.54,0,1,0,6.54,6.54A6.55,6.55,0,0,0,43.09,36.79Z"/><path d="M75.44,53.87A10.54,10.54,0,1,1,86,43.33,10.55,10.55,0,0,1,75.44,53.87Zm0-17.08A6.54,6.54,0,1,0,82,43.33,6.55,6.55,0,0,0,75.44,36.79Z"/><path d="M78.34,27.22H41.1V21.3a18.47,18.47,0,0,1-.18-2.59,18.71,18.71,0,0,1,37.42,0c0,.15,0,.3,0,.45h0Zm-33.24-4H74.34v-.06h-.51l.35-2.3a15.1,15.1,0,0,0,.16-2.15,14.71,14.71,0,0,0-29.42,0,15.22,15.22,0,0,0,.15,2.15l0,.3Z"/></g></g></svg>