<svg xmlns="http://www.w3.org/2000/svg" viewBox="0 0 61.36 62"><g id="Layer_2" data-name="Layer 2"><g id="Layer_1-2" data-name="Layer 1"><path d="M61.1,50.86l-4-4a.91.91,0,0,0-1.28,1.28l4,4a.91.91,0,0,0,1.29,0,.91.91,0,0,0,0-1.28Z"/><path d="M22.8,40.17a.91.91,0,0,0,1.82,0v-1.4A3.55,3.55,0,0,0,24.28,32a3.48,3.48,0,0,0,.53-1.86,3.56,3.56,0,0,0-3.54-3.55,3.54,3.54,0,0,0-3.1-5.29H16.43a3.52,3.52,0,0,0,.45-1.74A3.56,3.56,0,0,0,13.33,16h-.05a.91.91,0,0,0,0,1.82h.05a1.74,1.74,0,0,1,0,3.47H9.17A1.73,1.73,0,0,1,9,17.86a.92.92,0,0,0,.83-1,.91.91,0,0,0-1-.82,3.48,3.48,0,0,0-1.32.38l-6-6A.91.91,0,1,0,.27,11.74l5.91,5.91a3.63,3.63,0,0,0-.56,1.93,3.56,3.56,0,0,0,3.55,3.56h.45a3.48,3.48,0,0,0-.45,1.73,3.56,3.56,0,0,0,3.55,3.56h0a3.49,3.49,0,0,0-.46,1.73,3.57,3.57,0,0,0,3.56,3.56H17a3.49,3.49,0,0,0-.46,1.73A3.57,3.57,0,0,0,20.13,39H22.8v1.16ZM11,24.87a1.74,1.74,0,0,1,1.74-1.73h5.45a1.74,1.74,0,1,1,0,3.47H12.72A1.74,1.74,0,0,1,11,24.87Zm3.15,5.29a1.74,1.74,0,0,1,1.74-1.73h5.39a1.74,1.74,0,1,1,0,3.47H15.87A1.74,1.74,0,0,1,14.13,30.16Zm4.26,5.29a1.73,1.73,0,0,1,1.74-1.73h3.23a1.74,1.74,0,0,1,0,3.47H20.13A1.74,1.74,0,0,1,18.39,35.45Z"/><path d="M55.55,38.12a4.08,4.08,0,0,0-1.19-2.9L49.09,30a9.4,9.4,0,0,0-3.37-2.14l-7.09-2.59L36,18.12a9.26,9.26,0,0,0-2.15-3.36l-4.37-4.38a4.07,4.07,0,0,0-5.74,0,4.12,4.12,0,0,0-1,1.57L11.75.28a.91.91,0,1,0-1.31,1.25l22,23.27a.79.79,0,0,0,.35.23L45.1,29.51a7.52,7.52,0,0,1,2.71,1.73l5.26,5.27a2.21,2.21,0,0,1,.66,1.6,2.24,2.24,0,0,1-3.83,1.56l-4.39-4.4a.91.91,0,0,0-1.55.64V51.49a1.74,1.74,0,1,1-3.48,0V46a.91.91,0,1,0-1.81,0v4.06a1.74,1.74,0,0,1-1.8,1.74A1.78,1.78,0,0,1,35.19,50V44.19a.91.91,0,0,0-1.81,0v4.47a1.74,1.74,0,0,1-3.47,0V42.88a.91.91,0,1,0-1.82,0v2.93a1.74,1.74,0,0,1-1.8,1.74,1.78,1.78,0,0,1-1.67-1.8V44.52a.91.91,0,0,0-1.82,0v1.23a3.61,3.61,0,0,0,3.42,3.61,3.49,3.49,0,0,0,1.88-.45,3.55,3.55,0,0,0,5.62,2.63A3.52,3.52,0,0,0,39,53,3.56,3.56,0,0,0,42.22,55a3.71,3.71,0,0,0,1.16-.19l6.88,6.88a.91.91,0,0,0,1.29,0,.91.91,0,0,0,0-1.28l-6.64-6.64a3.51,3.51,0,0,0,.86-2.32V38.11L52.71,45A.91.91,0,0,0,54,45a.91.91,0,0,0,0-1.28l-1.7-1.7a4.07,4.07,0,0,0,3.25-3.94ZM24.44,13.64a2.24,2.24,0,0,1,3.79-2L32.61,16a7.37,7.37,0,0,1,1.72,2.71l2.07,5.66-2.75-1S24.44,13.66,24.44,13.64Z"/></g></g></svg>