<svg xmlns="http://www.w3.org/2000/svg" viewBox="0 0 80.07 28.54"><defs><style>.cls-1{fill:#281a10;}</style></defs><g id="Layer_2" data-name="Layer 2"><g id="Layer_3" data-name="Layer 3"><g id="option"><path class="cls-1" d="M30.85,7v.22l-4.38,7.3h2.15a2.8,2.8,0,0,0,.84-.11,1.11,1.11,0,0,0,.51-.35,1.68,1.68,0,0,0,.3-.63,8.16,8.16,0,0,0,.15-1h.25c0,.22,0,.52,0,.89,0,.14,0,.34,0,.6s0,.53.06.81c-.4,0-.85,0-1.36,0H26.62q-.72,0-1.35,0v-.22l4.41-7.29H27.55a2.26,2.26,0,0,0-1.05.19,1.16,1.16,0,0,0-.52.64,5.64,5.64,0,0,0-.23,1.22h-.26a2.54,2.54,0,0,0,0-.41c0-.15,0-.32,0-.49s0-.34,0-.6,0-.53-.06-.81c.41,0,.87,0,1.37,0h2.7C30,7,30.44,7,30.85,7Z"/><path class="cls-1" d="M36.22,6.84a3.56,3.56,0,0,1,1.83.47,3.21,3.21,0,0,1,1.21,1.36,4.77,4.77,0,0,1,.44,2.14A4.83,4.83,0,0,1,39.25,13,3.47,3.47,0,0,1,38,14.4a3.27,3.27,0,0,1-1.81.51,3.53,3.53,0,0,1-1.83-.47,3.09,3.09,0,0,1-1.21-1.36,4.8,4.8,0,0,1-.44-2.14,4.86,4.86,0,0,1,.45-2.15,3.47,3.47,0,0,1,1.24-1.43A3.14,3.14,0,0,1,36.22,6.84Zm0,.2a1.74,1.74,0,0,0-1.24.49,3.2,3.2,0,0,0-.82,1.36,6.45,6.45,0,0,0-.29,2,5.86,5.86,0,0,0,.32,2A3.13,3.13,0,0,0,35,14.25a1.86,1.86,0,0,0,1.22.46,1.74,1.74,0,0,0,1.24-.49,3.2,3.2,0,0,0,.82-1.36,6.5,6.5,0,0,0,.29-2,5.92,5.92,0,0,0-.32-2A3.16,3.16,0,0,0,37.4,7.5,1.82,1.82,0,0,0,36.18,7Z"/><path class="cls-1" d="M48.22,7v.22a1.55,1.55,0,0,0-.57.11.51.51,0,0,0-.25.32,2.1,2.1,0,0,0-.07.63v3.3a7.43,7.43,0,0,1-.1,1.33,2.64,2.64,0,0,1-.35,1,1.92,1.92,0,0,1-.8.74,2.49,2.49,0,0,1-1.21.28,4.09,4.09,0,0,1-1-.12,2,2,0,0,1-.84-.47,2.52,2.52,0,0,1-.5-.65,2.32,2.32,0,0,1-.24-.83,8.56,8.56,0,0,1-.07-1.24V8.16a1.81,1.81,0,0,0-.07-.6.42.42,0,0,0-.25-.27,2.34,2.34,0,0,0-.57-.08V7l.6,0H43.5l.63,0v.22a2.34,2.34,0,0,0-.57.08.42.42,0,0,0-.25.27,1.81,1.81,0,0,0-.07.6v3.63a8.36,8.36,0,0,0,.11,1.37,1.81,1.81,0,0,0,.48,1,1.56,1.56,0,0,0,1.14.37,2,2,0,0,0,1.29-.37,1.92,1.92,0,0,0,.64-1,5.51,5.51,0,0,0,.18-1.46V8.27A1.75,1.75,0,0,0,47,7.64a.62.62,0,0,0-.32-.32,1.72,1.72,0,0,0-.59-.11V7l.52,0h1.16Z"/><path class="cls-1" d="M52.15,6.87A2,2,0,0,1,53,7a2.62,2.62,0,0,1,.5.28,1.48,1.48,0,0,0,.22.11.29.29,0,0,0,.16,0q.16,0,.24-.48h.25c0,.12,0,.27,0,.44s0,.4,0,.68,0,.66,0,1.12H54a3.16,3.16,0,0,0-.23-1,1.92,1.92,0,0,0-.57-.79,1.53,1.53,0,0,0-1-.31,1.4,1.4,0,0,0-1,.35,1.21,1.21,0,0,0-.37.92,1.32,1.32,0,0,0,.25.83,2.45,2.45,0,0,0,.67.6l.92.58a9.81,9.81,0,0,1,1,.7,2.77,2.77,0,0,1,.7.76,1.81,1.81,0,0,1,.26,1A1.94,1.94,0,0,1,54.4,14a1.89,1.89,0,0,1-.84.69,2.76,2.76,0,0,1-1.16.23,2.53,2.53,0,0,1-.92-.13,5.6,5.6,0,0,1-.59-.27.73.73,0,0,0-.37-.16c-.12,0-.2.16-.24.49H50c0-.16,0-.34,0-.55s0-.48,0-.81V12.2h.25a4.79,4.79,0,0,0,.25,1.23,2,2,0,0,0,.63.92,1.7,1.7,0,0,0,1.12.34,1.54,1.54,0,0,0,1-.34,1.32,1.32,0,0,0,.45-1.12,1.43,1.43,0,0,0-.48-1.1,6.54,6.54,0,0,0-1.23-.9c-.35-.22-.67-.43-1-.65a2.73,2.73,0,0,1-.72-.76,2,2,0,0,1-.27-1.05,1.87,1.87,0,0,1,.29-1.07,1.73,1.73,0,0,1,.77-.62A2.44,2.44,0,0,1,52.15,6.87Z"/><path class="cls-1" d="M56.54,14.76v-.22a2.26,2.26,0,0,0,.57-.09.4.4,0,0,0,.26-.26,2.17,2.17,0,0,0,.06-.59V8.16a2.2,2.2,0,0,0-.06-.6.44.44,0,0,0-.26-.27,2.34,2.34,0,0,0-.57-.08V7l.61,0h1.56l.63,0v.22a2.17,2.17,0,0,0-.56.08.41.41,0,0,0-.26.27,1.81,1.81,0,0,0-.07.6V13.6a1.78,1.78,0,0,0,.07.59.38.38,0,0,0,.26.26,2.09,2.09,0,0,0,.56.09v.22a5.53,5.53,0,0,0-.63,0H57.15A5,5,0,0,0,56.54,14.76ZM58.07,11v-.22H62.4V11Zm3.06,3.8v-.22a2.16,2.16,0,0,0,.56-.09.38.38,0,0,0,.26-.26A2.1,2.1,0,0,0,62,13.6V8.16a2.12,2.12,0,0,0-.07-.6.41.41,0,0,0-.26-.27,2.24,2.24,0,0,0-.56-.08V7l.63,0h1.56l.6,0v.22a2.32,2.32,0,0,0-.56.08.44.44,0,0,0-.26.27,2.2,2.2,0,0,0-.06.6V13.6a2.17,2.17,0,0,0,.06.59.4.4,0,0,0,.26.26,2.24,2.24,0,0,0,.56.09v.22a4.75,4.75,0,0,0-.6,0H61.76A5.53,5.53,0,0,0,61.13,14.76Z"/><path class="cls-1" d="M68.75,6.94l2.68,6.9a1.12,1.12,0,0,0,.37.55.88.88,0,0,0,.38.15v.22a3.89,3.89,0,0,0-.53,0H70.21a4.75,4.75,0,0,0-.6,0v-.22a1.11,1.11,0,0,0,.71-.19c.1-.12.08-.36-.07-.73l-2-5.45L68.39,8l-1.91,5a2.61,2.61,0,0,0-.22.93.55.55,0,0,0,.25.48,1.58,1.58,0,0,0,.7.15v.22a6.4,6.4,0,0,0-.64,0H65.49a2,2,0,0,0-.36,0v-.22a1.05,1.05,0,0,0,.45-.26,1.83,1.83,0,0,0,.42-.7l2.57-6.64h.18Zm1.34,4.66v.22H66.82l.11-.22Z"/><path class="cls-1" d="M80.07,7v.22a1.55,1.55,0,0,0-.57.11.51.51,0,0,0-.25.32,2.1,2.1,0,0,0-.07.63v6.54h-.25L74.32,7.7v5.79a2.46,2.46,0,0,0,.07.62.5.5,0,0,0,.29.31,1.81,1.81,0,0,0,.64.12v.22a3.54,3.54,0,0,0-.52,0H73.65a3.09,3.09,0,0,0-.47,0v-.22a1.52,1.52,0,0,0,.57-.12.47.47,0,0,0,.25-.31,2.07,2.07,0,0,0,.07-.62V8.16a1.81,1.81,0,0,0-.07-.6.42.42,0,0,0-.25-.27,2.34,2.34,0,0,0-.57-.08V7l.47,0h1l.4,0,3.87,6V8.27a2.49,2.49,0,0,0-.07-.63.54.54,0,0,0-.29-.32,1.9,1.9,0,0,0-.64-.11V7l.52,0h1.16Z"/><path class="cls-1" d="M24.85,21.09a1.2,1.2,0,0,1,1.26-1.21,1.21,1.21,0,0,1,.93.39l-.29.27a.83.83,0,1,0,0,1.09l.29.27a1.27,1.27,0,0,1-2.19-.81Z"/><path class="cls-1" d="M28.24,21.09a1.27,1.27,0,1,1,1.27,1.21A1.2,1.2,0,0,1,28.24,21.09Zm2.09,0a.83.83,0,1,0-.82.82A.79.79,0,0,0,30.33,21.09Z"/><path class="cls-1" d="M32,22l.16-.34a1.21,1.21,0,0,0,.77.26c.37,0,.52-.13.52-.3,0-.51-1.4-.18-1.4-1.05,0-.38.31-.7.95-.7a1.42,1.42,0,0,1,.78.21l-.13.34a1.3,1.3,0,0,0-.65-.19c-.36,0-.51.14-.51.32,0,.5,1.39.17,1.39,1,0,.37-.31.7-1,.7A1.52,1.52,0,0,1,32,22Z"/><path class="cls-1" d="M37.52,22.26V20.7L36.74,22h-.19l-.77-1.27v1.54h-.42V19.91h.36l.93,1.56.92-1.56h.36v2.35Z"/><path class="cls-1" d="M41.33,21.9v.36H39.57V19.91h1.71v.37H40v.61h1.13v.36H40v.65Z"/><path class="cls-1" d="M43.3,20.28h-.78v-.37h2v.37h-.78v2H43.3Z"/><path class="cls-1" d="M45.85,19.91h.44v2.35h-.44Z"/><path class="cls-1" d="M47.76,21.09A1.27,1.27,0,0,1,50,20.27l-.28.27a.84.84,0,0,0-.63-.28.83.83,0,1,0,0,1.65.84.84,0,0,0,.63-.28l.28.27a1.19,1.19,0,0,1-.93.4A1.2,1.2,0,0,1,47.76,21.09Z"/><path class="cls-1" d="M51.16,22l.15-.34a1.26,1.26,0,0,0,.78.26c.36,0,.52-.13.52-.3,0-.51-1.4-.18-1.4-1.05,0-.38.3-.7.95-.7a1.42,1.42,0,0,1,.78.21l-.14.34a1.24,1.24,0,0,0-.64-.19c-.37,0-.51.14-.51.32,0,.5,1.39.17,1.39,1,0,.37-.31.7-.95.7A1.52,1.52,0,0,1,51.16,22Z"/><path class="cls-1" d="M79.26,21.51H55.55a.13.13,0,0,1-.14-.12h0a.13.13,0,0,1,.14-.12H79.26a.13.13,0,0,1,.14.12h0A.13.13,0,0,1,79.26,21.51Z"/><path class="cls-1" d="M18.82,6a9.9,9.9,0,0,0-2.09-3.11A9.79,9.79,0,0,0,0,9.8v9c0,.16,0,.32,0,.49a.19.19,0,0,0,0,.15,9.6,9.6,0,0,0,.75,3.17L1,23H1a9.54,9.54,0,0,0,1.92,2.71l.43.41,0,0a9.82,9.82,0,0,0,10.29,1.67,9.74,9.74,0,0,0,3-1.95h0l.15-.14a9.92,9.92,0,0,0,1.73-2.34.17.17,0,0,0,.06-.06.14.14,0,0,0,0-.11,6.54,6.54,0,0,0,.28-.6,9.58,9.58,0,0,0,.77-3.81V9.8A9.59,9.59,0,0,0,18.82,6Zm-1.11,3.4-.15-.28a6,6,0,0,1,1.63,3.21s0,0,0,0v6.4c0,.19,0,.39,0,.59a9.47,9.47,0,0,1-.77-4.74A11.73,11.73,0,0,0,17.71,9.38Zm-.79,5.71c0,.11.1.2.14.3a1.49,1.49,0,0,1,.11.94.57.57,0,0,1-.59.41.2.2,0,0,0-.15,0,.67.67,0,0,0-.29.65c0,.15,0,.33-.07.41s-.44.13-.65.12a4.4,4.4,0,0,0-.81,0,.08.08,0,0,0-.07,0,.08.08,0,0,0,0,.08,3.89,3.89,0,0,0,.54.36l.13.11a.58.58,0,0,1,.11.69.54.54,0,0,1,0,.11,2.44,2.44,0,0,1-.59.79,1.59,1.59,0,0,1-1.36.13,5.86,5.86,0,0,1-.91-.38,4.74,4.74,0,0,0-.51-.24,1.37,1.37,0,0,0-1-.12,1.4,1.4,0,0,0-.68.61,4.84,4.84,0,0,0-.71,1.44,2.32,2.32,0,0,0,0,1.23,13.73,13.73,0,0,0-2-.58A8.31,8.31,0,0,1,4.8,21.1,1.37,1.37,0,0,1,4.59,21l-.15-.11a7.56,7.56,0,0,1,0-2.12,7.92,7.92,0,0,1,.71-2.44,8.7,8.7,0,0,1,.73-.89c-.05.14-.09.29-.14.46a7.79,7.79,0,0,0-.08,3.49.18.18,0,0,0,.18.16h0A.19.19,0,0,0,6,19.26,7.41,7.41,0,0,1,6.09,16a5.35,5.35,0,0,1,.48-1.24,7.61,7.61,0,0,1,.63-.48.24.24,0,0,1,.35.1h0a1,1,0,0,0,.07.15,1.71,1.71,0,0,0,1.19.84,5.93,5.93,0,0,0,1.42,3.57.2.2,0,0,0,.16.07.16.16,0,0,0,.11-.05.19.19,0,0,0,0-.28,5.52,5.52,0,0,1-1.3-4.15.19.19,0,0,0-.14-.22.18.18,0,0,0-.24.16,4.36,4.36,0,0,0,0,.51A1.29,1.29,0,0,1,8,14.31a2.06,2.06,0,0,1-.24-1.17l.64-.24a.66.66,0,0,0,0,.14.71.71,0,0,0,.4.67h.08A.19.19,0,0,0,9,13.6a.19.19,0,0,0-.1-.25A.33.33,0,0,1,8.74,13a.77.77,0,0,1,.07-.29,20,20,0,0,1,2.39-.64h.05a5.42,5.42,0,0,0,1.93-.82,10.65,10.65,0,0,0,1.74-1.61l.24-.26a1.59,1.59,0,0,1,1.08-.66.79.79,0,0,1,.61.29c.53.64.45,2.16.31,3a5.66,5.66,0,0,1-.22.88,5.18,5.18,0,0,0-.27,1.42A1.54,1.54,0,0,0,16.92,15.09Zm-1.83,7.07a5.41,5.41,0,0,0,1.07,3.52,9.56,9.56,0,0,1-1.72,1.25h0a1.49,1.49,0,0,1-.74-1,17.91,17.91,0,0,1,0-5.3,1.72,1.72,0,0,0,1.28-.27,1,1,0,0,0,.19-.16A14.61,14.61,0,0,0,15.09,22.16ZM4.53,21.39l0,0a8.8,8.8,0,0,0,3,1.12,12.12,12.12,0,0,1,2.07.64l.21.09a9.09,9.09,0,0,0-1.06-.12,8.58,8.58,0,0,0-.88,0q-.45,0-.87.06l-.86.06H5.22A8.38,8.38,0,0,1,4.53,21.39ZM10.15,23a.28.28,0,0,1-.07-.11c0-.09-.09-.18-.12-.27a1.3,1.3,0,0,1-.07-.33,1.91,1.91,0,0,1,0-.71,4.12,4.12,0,0,1,.65-1.31,1.08,1.08,0,0,1,.48-.47,1.11,1.11,0,0,1,.69.1,7.3,7.3,0,0,0-.44,1.31,6.75,6.75,0,0,0-.12,2.69Zm1.92,1.72a1.72,1.72,0,0,1-.51-1,6.62,6.62,0,0,1,.13-2.39,6.9,6.9,0,0,1,.42-1.25l.16.08a6.12,6.12,0,0,0,1,.41h0c0,.32-.15,1.21-.18,2.24a12,12,0,0,0,.26,3.35,3.62,3.62,0,0,1-.56-.61A7.81,7.81,0,0,0,12.07,24.75Zm-6.66-11h0a14.79,14.79,0,0,0-2.52,1.7,10.42,10.42,0,0,0-2.48,3V15.78a1.33,1.33,0,0,1,.28-.84,4.28,4.28,0,0,1,.6-.67,5.48,5.48,0,0,1,3.16-1.41A15.39,15.39,0,0,0,8.58,12l.13,0h0l.38.09.3.05a20.1,20.1,0,0,0-2.86,1.06C6.16,13.4,5.78,13.59,5.41,13.79ZM.55,8.06A1.57,1.57,0,0,1,1.7,6.83a3.88,3.88,0,0,1,.55-.1A8.19,8.19,0,0,1,7.11,7.89a12.82,12.82,0,0,0,5.62,1.62h.19a7.21,7.21,0,0,0,1.83-.22l-.2.21A9.88,9.88,0,0,1,13,11a5,5,0,0,1-4.15.68l-.11,0a.24.24,0,0,0-.14,0,7,7,0,0,1-2-1.15l0,0-.21-.17-.07-.06h0C3,7.63,1.25,7.78.54,8.07Zm14.9-3.28a9.19,9.19,0,0,1,.73,2.68,3.82,3.82,0,0,0-1.6-1.71c-2.7-1.56-7.38-.7-8.33-.33a22.38,22.38,0,0,1-2.32.69,7.94,7.94,0,0,1-1.37.2H2.47A22.57,22.57,0,0,0,5.25,4.4C6.48,3.35,10.84.29,15.45,4.78Zm0,3.84-.07,0a5.44,5.44,0,0,1-2.67.48A12.35,12.35,0,0,1,7.29,7.55a11.36,11.36,0,0,0-3-1.11H4.23c.66-.17,1.49-.4,2.16-.65a12.64,12.64,0,0,1,3.38-.53,8.88,8.88,0,0,1,4.62.84,3.33,3.33,0,0,1,1.68,2.29h0A1.37,1.37,0,0,0,15.47,8.62ZM.39,10.71a.85.85,0,0,1,.76-.84,2.22,2.22,0,0,1,1.31.36c.43.26.82.47,1.15.64a4.75,4.75,0,0,0-2.43.51,4.68,4.68,0,0,0-.79.52Zm0,2.36A1.36,1.36,0,0,1,1,11.93l.37-.21a4.56,4.56,0,0,1,3-.38l.63.12H5a7.43,7.43,0,0,0,2.66.13l.09.05.29.13a18.78,18.78,0,0,1-3.65.71A5.89,5.89,0,0,0,1,14a5.1,5.1,0,0,0-.62.69ZM.42,9a.76.76,0,0,1,.64-.69,2.79,2.79,0,0,1,.59,0c.81.06,2.24.51,4.45,2.25h0a10.49,10.49,0,0,0,1,.7,11.14,11.14,0,0,1-2-.18A13.22,13.22,0,0,1,2.66,9.9,2.38,2.38,0,0,0,.78,9.55a1.87,1.87,0,0,0-.39.15Q.39,9.36.42,9Zm18.13.67a3.08,3.08,0,0,0-1.08-1.1l-.15-.08.18,0a2,2,0,0,1,1.21.29,1.13,1.13,0,0,1,.5.9v1.39A7.73,7.73,0,0,0,18.55,9.68Zm.58-1.07a2.28,2.28,0,0,0-1.67-.51l-.34,0a4.36,4.36,0,0,0,1-2.15,4.87,4.87,0,0,0,.05-.51A9.22,9.22,0,0,1,19.13,8.61ZM17.24,4a2.43,2.43,0,0,1,.49,1.89V6a4.09,4.09,0,0,1-1.12,2.18A9.4,9.4,0,0,0,15.3,3.64,9.1,9.1,0,0,0,12.56.8,9.46,9.46,0,0,1,17.24,4ZM9.8.39h0a4.74,4.74,0,0,1,2.82.93A8.83,8.83,0,0,1,15,3.82a8.17,8.17,0,0,0-2.62-1.46A6.57,6.57,0,0,0,9.23,2.1,8.22,8.22,0,0,0,6.7,3,9.94,9.94,0,0,0,5,4.1,23.73,23.73,0,0,1,1.21,6.58l-.3.13A9.42,9.42,0,0,1,9.8.39ZM.64,18.82a10.92,10.92,0,0,1,3.64-3.89,13.88,13.88,0,0,0-1.17,1.49,13.57,13.57,0,0,0-1.53,2.87A10,10,0,0,0,1,22a9.42,9.42,0,0,1-.51-2.14A1.73,1.73,0,0,1,.64,18.82Zm.91,4.46a1.89,1.89,0,0,1-.23-1,11.18,11.18,0,0,1,2.1-5.67,14.87,14.87,0,0,1,1.24-1.57,6.28,6.28,0,0,1,2-1.5h0l.38-.17a.19.19,0,0,1,.26.16h0a.19.19,0,0,1-.09.18A8.82,8.82,0,0,0,4.6,16.36a10.13,10.13,0,0,0-1.53,3.82,14.25,14.25,0,0,0,.06,5.2A9.56,9.56,0,0,1,1.55,23.28Zm1.92,1.78A12.2,12.2,0,0,1,4.16,18a6.58,6.58,0,0,0-.12.69A8.06,8.06,0,0,0,5.4,24.32c.54.79,1,1.41,1.33,1.91A14.43,14.43,0,0,1,7.88,28a9.34,9.34,0,0,1-3.62-1.61A2,2,0,0,1,3.47,25.06Zm6.33,3.1h0a9.9,9.9,0,0,1-1.45-.11A12.34,12.34,0,0,0,7.05,26c-.36-.49-.8-1.11-1.33-1.9-.1-.14-.19-.29-.28-.43.27,0,.51,0,.72,0s.59,0,.88-.06a13.73,13.73,0,0,1,1.7-.06,6.21,6.21,0,0,1,1.83.35,15.59,15.59,0,0,1,1.91,1.9A5.16,5.16,0,0,0,14,27.15,9.46,9.46,0,0,1,9.8,28.16Zm6.9-3a.34.34,0,0,1-.52,0,6.25,6.25,0,0,1-.71-3,16.52,16.52,0,0,1,.09-2.5v0l.08-.14a1.45,1.45,0,0,0,.23-.93s0,0,0-.06a.15.15,0,0,1,0-.09s0-.05.12-.09l.07,0a.69.69,0,0,0,.31-.17.85.85,0,0,0,.18-.69.43.43,0,0,1,.07-.28h.09a17.5,17.5,0,0,0,.08,2.54c.19,1.8.63,3,1.32,3.53A9.42,9.42,0,0,1,16.7,25.14Zm1.56-2.28a5.18,5.18,0,0,1-1.12-3.21A18.72,18.72,0,0,1,17.07,17a1,1,0,0,0,.46-.58,1.71,1.71,0,0,0-.12-1.19c0-.11-.1-.22-.15-.33a1.39,1.39,0,0,1-.21-.61A5.15,5.15,0,0,1,17.31,13a7,7,0,0,0,.23-.93,7.62,7.62,0,0,0,.09-1.82,13.52,13.52,0,0,1,.4,4.35,12.67,12.67,0,0,0,.29,3.47A5.64,5.64,0,0,0,19.13,20,9.35,9.35,0,0,1,18.26,22.86Z"/><path class="cls-1" d="M15.77,11.92a1.67,1.67,0,0,0-1-.25h0a4.16,4.16,0,0,0-1.06.13.2.2,0,0,0-.12.25.19.19,0,0,0,.24.12,3.69,3.69,0,0,1,.95-.11h0a1.33,1.33,0,0,1,.75.19.81.81,0,0,1,.35.6.18.18,0,0,0,.19.19h0a.19.19,0,0,0,.18-.19A1.15,1.15,0,0,0,15.77,11.92Z"/><path class="cls-1" d="M15.63,13.83a1.67,1.67,0,0,1-1.54-.74.15.15,0,0,0-.17-.08.13.13,0,0,0-.1.15l0,.08a1,1,0,0,1-.26.2.15.15,0,0,0-.08.17.15.15,0,0,0,.15.11l.06,0,.18-.12a.24.24,0,0,1,.31,0h0a.1.1,0,0,1,0,.14l-.06.06-.1.1a.15.15,0,0,0,0,.18.15.15,0,0,0,.13.07.14.14,0,0,0,.1-.05l.09-.09.05,0a.23.23,0,0,1,.27,0l.08,0a.14.14,0,0,1,.07.16l-.09.26a.14.14,0,0,0,0,.17.17.17,0,0,0,.1,0,.14.14,0,0,0,.12-.09l.09-.23a.21.21,0,0,1,.24-.14h.05a.14.14,0,0,1,.11.11,2.13,2.13,0,0,0,0,.25.14.14,0,0,0,.15.11h0a.15.15,0,0,0,.11-.17.43.43,0,0,1,0-.11.36.36,0,0,1,.06-.27.25.25,0,0,0,0-.08A.15.15,0,0,0,15.63,13.83Z"/></g></g></g></svg>