<svg xmlns="http://www.w3.org/2000/svg" viewBox="0 0 72.15 62.2"><defs><style>.cls-1{fill:#281a10;}</style></defs><g id="Layer_2" data-name="Layer 2"><g id="Layer_1-2" data-name="Layer 1"><path class="cls-1" d="M72.14,20.62v-.24A18.57,18.57,0,0,0,53.59,1.82,18.32,18.32,0,0,0,46,3.47c-.07,0-.8.39-.82.4a30.47,30.47,0,0,0-9.56,8.18c-.33-.34-.68-.69-1-1a1,1,0,0,0-.31-.19A6,6,0,0,0,35.6,9.36,5.36,5.36,0,0,0,35.85,4a7.8,7.8,0,0,0-6.41-4,16.73,16.73,0,0,0-9.15,2.41,1,1,0,0,0-.54.86,16.69,16.69,0,0,0,1.79,9.29,7.76,7.76,0,0,0,6.37,4.05H28a5.31,5.31,0,0,0,4.6-2.53,5.49,5.49,0,0,0,.62-1.43,14.19,14.19,0,0,1,1.16,1.17,19,19,0,0,0-2.11,14.3c.48,2.11,2,6.49,3.72,6.57h.1c.43,0,1.44-.19,2.66-3.16,2-4.86,2.47-12-1.83-17.88A26.8,26.8,0,0,1,46.31,5.6a16.32,16.32,0,0,1,7.28-1.7A16.49,16.49,0,0,1,70.06,20.36v.31a31.59,31.59,0,0,1-4,15.55C60.68,46.15,50.6,54.16,36.08,60c-14.52-5.88-24.61-13.89-30-23.82a31.7,31.7,0,0,1-4-15.55,2.62,2.62,0,0,0,0-.29A16.49,16.49,0,0,1,17.59,3.93a1,1,0,0,0,1-1.1,1,1,0,0,0-1.1-1A18.57,18.57,0,0,0,0,20.39v.23a33.74,33.74,0,0,0,4.25,16.6C9.92,47.67,20.5,56.05,35.69,62.13a1,1,0,0,0,.39.07,1,1,0,0,0,.38-.07c15.19-6.08,25.77-14.46,31.43-24.91A33.74,33.74,0,0,0,72.14,20.62Zm-44.2-6.07a5.73,5.73,0,0,1-4.6-3A14.25,14.25,0,0,1,21.8,4a14.24,14.24,0,0,1,7.48-1.88A5.71,5.71,0,0,1,34,5a3.26,3.26,0,0,1-.14,3.29,3.7,3.7,0,0,1-.66.74,4.16,4.16,0,0,0-1.8-2.24A4.43,4.43,0,0,0,29,6.05a2.53,2.53,0,0,0-2.14,1.12,2.53,2.53,0,0,0-.08,2.41,4.28,4.28,0,0,0,1.67,1.85,4.33,4.33,0,0,0,2.29.71h.1c.14,0,.27,0,.4-.06a4.1,4.1,0,0,1-.38.92A3.23,3.23,0,0,1,27.94,14.55Zm3.27-4.64a.56.56,0,0,1-.44.14,2.36,2.36,0,0,1-1.22-.38,2.24,2.24,0,0,1-.88-.94.56.56,0,0,1-.06-.45.59.59,0,0,1,.44-.15h0a2.34,2.34,0,0,1,1.18.38C31.12,9,31.31,9.74,31.21,9.91Zm6.9,15a16.54,16.54,0,0,1-2,7.39,17.48,17.48,0,0,1-2.15-10.35,17,17,0,0,1,1.83-6.26A15.51,15.51,0,0,1,38.11,24.87Z"/></g></g></svg>