<svg xmlns="http://www.w3.org/2000/svg" viewBox="0 0 66.81 83.13"><defs><style>.cls-1{fill:#281a10;}</style></defs><g id="Layer_2" data-name="Layer 2"><g id="Layer_1-2" data-name="Layer 1"><path class="cls-1" d="M37.59,74.24a1.77,1.77,0,0,0-.08-1.41,1.7,1.7,0,0,0-1.21-1c-.57-.1-1.51,0-2.9,1.16-1.39-1.13-2.34-1.26-2.91-1.16a1.71,1.71,0,0,0-1.21,1,1.77,1.77,0,0,0-.08,1.41c.26.72,1.11,1.82,3.72,3a.76.76,0,0,0,.26.06h.43a.82.82,0,0,0,.27-.06C36.48,76.06,37.34,75,37.59,74.24Z"/><path class="cls-1" d="M36.4,73.83c-.22.64-1.34,1.49-2.92,2.23h-.16c-1.59-.74-2.7-1.59-2.93-2.23a.49.49,0,0,1,0-.44c.12-.23.23-.28.32-.3A3.76,3.76,0,0,1,33,74.31a.64.64,0,0,0,.84,0,3.74,3.74,0,0,1,2.26-1.22c.09,0,.2.07.31.3A.56.56,0,0,1,36.4,73.83Z"/><path class="cls-1" d="M65.66,77.15c.19.09.28.19.47.19a.75.75,0,0,0,.47-.19.62.62,0,0,0,0-.93A20,20,0,0,0,58.28,72a15.6,15.6,0,0,0,0-2.9,19,19,0,0,0-2.52-8.51,21.06,21.06,0,0,0-5.71-6.45,27.8,27.8,0,0,0-15-5.42c2-1.77,6.73-6.17,11.69-11.12,8.88-8.7,14.49-15,16.64-19,2.61-4.58,2.71-9.54.46-13.27S57.16-.25,51.92,0c-3.83.18-7.67,2.71-11.4,7.47a50.55,50.55,0,0,0-7.58,14.78A48.85,48.85,0,0,0,25.28,7.5C21.54,2.74,17.8.21,14,0,8.64-.25,4.34,1.71,2.09,5.36s-2.15,8.69.47,13.27c4.58,8.23,23.84,26.08,28.33,30.2a27.32,27.32,0,0,0-14.21,5.32,20.61,20.61,0,0,0-5.61,6.45,20.15,20.15,0,0,0-2.62,8.51,14.57,14.57,0,0,0,.1,2.9A19.53,19.53,0,0,0,.22,76.22a.71.71,0,0,0-.09.93.73.73,0,0,0,.47.19A.48.48,0,0,0,1,77.15a19.47,19.47,0,0,1,7.86-3.93,19.7,19.7,0,0,0,.74,2.25A20.74,20.74,0,0,0,.41,80.89a.83.83,0,0,0,0,.93c.19.1.28.19.47.19s.28-.09.47-.19a19.57,19.57,0,0,1,8.88-5.23,12.23,12.23,0,0,0,5.42,4.77,15.8,15.8,0,0,0,7.48,1.77h1.12A13.16,13.16,0,0,0,32.1,80a.6.6,0,0,0,.1-.84.72.72,0,0,0-.94-.09,11.5,11.5,0,0,1-7.1,2.8,15.59,15.59,0,0,1-7.95-1.58,11.28,11.28,0,0,1-4.77-4A6,6,0,0,1,12.66,76a26.53,26.53,0,0,1,6.45-.56.72.72,0,0,0,.75-.56.64.64,0,0,0-.66-.66,32.13,32.13,0,0,0-6.73.47,10.12,10.12,0,0,1-1.68.37A14.67,14.67,0,0,1,10,72.94a17,17,0,0,1,2.81-.46,26.57,26.57,0,0,1,6.45.09A.59.59,0,0,0,20,72.1a.64.64,0,0,0-.46-.75,31.39,31.39,0,0,0-6.83-.09,15.18,15.18,0,0,0-3,.47,23.68,23.68,0,0,1-.09-2.53,19.48,19.48,0,0,1,7.76-14,26.75,26.75,0,0,1,31.78,0,19.32,19.32,0,0,1,7.85,14A23.68,23.68,0,0,1,57,71.73a20.23,20.23,0,0,0-3.09-.47,30.3,30.3,0,0,0-6.73.09.58.58,0,0,0-.46.75.55.55,0,0,0,.65.47,30.06,30.06,0,0,1,9.35.37,8.74,8.74,0,0,1-.84,2.15,7.56,7.56,0,0,1-1.59-.37,32.94,32.94,0,0,0-6.83-.47.63.63,0,0,0-.56.66.57.57,0,0,0,.66.56,28.55,28.55,0,0,1,7.66.84,11.72,11.72,0,0,1-4.67,4,16.54,16.54,0,0,1-8,1.49,11.5,11.5,0,0,1-7.1-2.8.71.71,0,0,0-.94.09.74.74,0,0,0,.1.94,13.76,13.76,0,0,0,7.85,3.08H43.6a16.88,16.88,0,0,0,7.48-1.68,14.88,14.88,0,0,0,5.42-4.77v-.09a20.79,20.79,0,0,1,8.88,5.23.7.7,0,0,0,.47.19c.19,0,.28-.09.47-.19a.72.72,0,0,0,0-.84,21.17,21.17,0,0,0-9.16-5.51,19.7,19.7,0,0,0,.74-2.25A18,18,0,0,1,65.66,77.15ZM33.22,48.73h-.56c-.28-.19-24-21.69-29.07-30.66a13.35,13.35,0,0,1-1.87-6.54A10.19,10.19,0,0,1,3.12,6c2.06-3.27,6-5,10.75-4.77,4.3.28,8,4,10.47,7.11,5.24,6.82,8,15.42,7.86,16.73a.58.58,0,0,0,.46.75h.56a.65.65,0,0,0,.47-.75c-.28-1.31,2.53-9.91,7.86-16.73,2.33-3.09,6.16-6.83,10.37-7.11,4.86-.19,8.79,1.5,10.75,4.77a10.18,10.18,0,0,1,1.5,5.52,14.68,14.68,0,0,1-2,6.54C57.25,26.86,34,48.08,33.22,48.73Z"/><path class="cls-1" d="M24,59.08A2.94,2.94,0,1,0,27,62,3,3,0,0,0,24,59.08Z"/><path class="cls-1" d="M42.75,64.75a2.94,2.94,0,1,0-2.94-2.94A3,3,0,0,0,42.75,64.75Z"/></g></g></svg>