<svg xmlns="http://www.w3.org/2000/svg" viewBox="0 0 61.69 62"><g id="Layer_2" data-name="Layer 2"><g id="Layer_1-2" data-name="Layer 1"><path d="M39,62,29.47,49.34,39,36.68v5.77H52.19c.06,0,5.86.42,8.28-3l1.22.76L54.37,53.83c-.08.15-1.83,3.05-8.65,3.46L39,57.54ZM31.27,49.34l6.33,8.39V56.17l8-.31c5.94-.36,7.47-2.71,7.48-2.73L58.74,42.7a14.4,14.4,0,0,1-6.64,1.18H37.6V41Z"/><path d="M52.21,41.5c-.68,0-1.42,0-2.24-.11l-.37,0L43.17,30.2l13-7.56,4.45,7.63c1,2.35,1.84,7.28-2.33,9.7C57.91,40.32,56.25,41.5,52.21,41.5ZM50.47,40c5.2.41,6.91-1.11,6.92-1.13l.15-.11c4.18-2.36,1.93-7.62,1.83-7.84l-3.7-6.32L45.12,30.72Z"/><path d="M8.28,52.54.46,39.25C.38,39.1-1.2,36.1,2,30.06l3.24-5.85L1.42,21.9l15.79-1.62L23.07,35l-4.93-3-6.79,11.2c-.06.09-3.43,4.84-1.8,8.66ZM5.82,22.89l1.33.8-3.91,7C.47,36,1.7,38.52,1.71,38.55l6,10.2a14.33,14.33,0,0,1,2.45-6.31l7.5-12.38,2.5,1.52-3.88-9.76Z"/><path d="M26.15,57.31l-8.84-.14c-2.55-.32-7.17-2.2-7.08-7-.11-.61-.29-3.28,3.11-7.87l.22-.3,12.87.28ZM14.27,43.43c-3,4.24-2.63,6.48-2.63,6.5l0,.18c-.14,4.8,5.52,5.6,5.76,5.63l7.33.12L25,43.66Z"/><path d="M47.32,24l-15.68-2.4,5.07-2.74L30.49,7.38c0-.11-2.44-5.41-6.57-5.93L24,0,39.44,0c.16,0,3.55.17,7.15,6L50,11.73l3.91-2.12ZM36.07,20.87l10.4,1.59,4.37-9.56-1.38.74L45.37,6.71c-3.14-5-5.93-5.28-6-5.28l-11.84,0a14.33,14.33,0,0,1,4.2,5.3l6.88,12.73Z"/><path d="M23.7,20.38,10.86,12.52,15.46,5C17,2.93,21-.11,25.1,2.41c.58.22,3,1.41,5.21,6.67l.15.34ZM12.83,12l10.4,6.37L28.85,9.3c-2.11-4.77-4.26-5.55-4.28-5.56l-.16-.08c-4.09-2.56-7.62,1.93-7.77,2.12Z"/></g></g></svg>